<svg xmlns="http://www.w3.org/2000/svg">

  <symbol id="add" viewBox="0 0 24 24">
    <path fill="currentColor"
      d="M22 5.18 10.59 16.6l-4.24-4.24 1.41-1.41 2.83 2.83 10-10zM12 20c-4.41 0-8-3.59-8-8s3.59-8 8-8c1.57 0 3.04.46 4.28 1.25l1.45-1.45C16.1 2.67 14.13 2 12 2 6.48 2 2 6.48 2 12s4.48 10 10 10c1.73 0 3.36-.44 4.78-1.22l-1.5-1.5c-1 .46-2.11.72-3.28.72m7-5h-3v2h3v3h2v-3h3v-2h-3v-3h-2z">
    </path>
  </symbol>

  <symbol id="remove" viewBox="0 0 24 24">
    <path fill="currentColor"
      d="M14.59 8 12 10.59 9.41 8 8 9.41 10.59 12 8 14.59 9.41 16 12 13.41 14.59 16 16 14.59 13.41 12 16 9.41zM12 2C6.47 2 2 6.47 2 12s4.47 10 10 10 10-4.47 10-10S17.53 2 12 2m0 18c-4.41 0-8-3.59-8-8s3.59-8 8-8 8 3.59 8 8-3.59 8-8 8">
    </path>
  </symbol>

  <symbol id="calendar" viewBox="0 0 15 16">
    <path fill="currentColor"
      d="M7.2 9.59999C6.97333 9.59999 6.78347 9.52319 6.6304 9.36959C6.4768 9.21653 6.4 9.02666 6.4 8.79999C6.4 8.57333 6.4768 8.38319 6.6304 8.22959C6.78347 8.07653 6.97333 7.99999 7.2 7.99999C7.42667 7.99999 7.6168 8.07653 7.7704 8.22959C7.92347 8.38319 8 8.57333 8 8.79999C8 9.02666 7.92347 9.21653 7.7704 9.36959C7.6168 9.52319 7.42667 9.59999 7.2 9.59999ZM4 9.59999C3.77333 9.59999 3.5832 9.52319 3.4296 9.36959C3.27653 9.21653 3.2 9.02666 3.2 8.79999C3.2 8.57333 3.27653 8.38319 3.4296 8.22959C3.5832 8.07653 3.77333 7.99999 4 7.99999C4.22667 7.99999 4.4168 8.07653 4.5704 8.22959C4.72347 8.38319 4.8 8.57333 4.8 8.79999C4.8 9.02666 4.72347 9.21653 4.5704 9.36959C4.4168 9.52319 4.22667 9.59999 4 9.59999ZM10.4 9.59999C10.1733 9.59999 9.98347 9.52319 9.8304 9.36959C9.6768 9.21653 9.6 9.02666 9.6 8.79999C9.6 8.57333 9.6768 8.38319 9.8304 8.22959C9.98347 8.07653 10.1733 7.99999 10.4 7.99999C10.6267 7.99999 10.8165 8.07653 10.9696 8.22959C11.1232 8.38319 11.2 8.57333 11.2 8.79999C11.2 9.02666 11.1232 9.21653 10.9696 9.36959C10.8165 9.52319 10.6267 9.59999 10.4 9.59999ZM7.2 12.8C6.97333 12.8 6.78347 12.7232 6.6304 12.5696C6.4768 12.4165 6.4 12.2267 6.4 12C6.4 11.7733 6.4768 11.5835 6.6304 11.4304C6.78347 11.2768 6.97333 11.2 7.2 11.2C7.42667 11.2 7.6168 11.2768 7.7704 11.4304C7.92347 11.5835 8 11.7733 8 12C8 12.2267 7.92347 12.4165 7.7704 12.5696C7.6168 12.7232 7.42667 12.8 7.2 12.8ZM4 12.8C3.77333 12.8 3.5832 12.7232 3.4296 12.5696C3.27653 12.4165 3.2 12.2267 3.2 12C3.2 11.7733 3.27653 11.5835 3.4296 11.4304C3.5832 11.2768 3.77333 11.2 4 11.2C4.22667 11.2 4.4168 11.2768 4.5704 11.4304C4.72347 11.5835 4.8 11.7733 4.8 12C4.8 12.2267 4.72347 12.4165 4.5704 12.5696C4.4168 12.7232 4.22667 12.8 4 12.8ZM10.4 12.8C10.1733 12.8 9.98347 12.7232 9.8304 12.5696C9.6768 12.4165 9.6 12.2267 9.6 12C9.6 11.7733 9.6768 11.5835 9.8304 11.4304C9.98347 11.2768 10.1733 11.2 10.4 11.2C10.6267 11.2 10.8165 11.2768 10.9696 11.4304C11.1232 11.5835 11.2 11.7733 11.2 12C11.2 12.2267 11.1232 12.4165 10.9696 12.5696C10.8165 12.7232 10.6267 12.8 10.4 12.8ZM1.6 16C1.16 16 0.7832 15.8435 0.4696 15.5304C0.156533 15.2168 0 14.84 0 14.4V3.19999C0 2.75999 0.156533 2.38346 0.4696 2.07039C0.7832 1.75679 1.16 1.59999 1.6 1.59999H2.4V-7.62939e-06H4V1.59999H10.4V-7.62939e-06H12V1.59999H12.8C13.24 1.59999 13.6168 1.75679 13.9304 2.07039C14.2435 2.38346 14.4 2.75999 14.4 3.19999V14.4C14.4 14.84 14.2435 15.2168 13.9304 15.5304C13.6168 15.8435 13.24 16 12.8 16H1.6ZM1.6 14.4H12.8V6.39999H1.6V14.4Z" />
  </symbol>

  <symbol id="clear" viewBox="0 0 14 14">
    <path fill="currentColor"
      d="M11.9872 2.04239C9.25728 -0.680798 4.77739 -0.680798 2.04745 2.04239C-0.682484 4.76559 -0.682484 9.23441 2.04745 11.9576C4.77739 14.6808 9.18728 14.6808 11.9172 11.9576C14.6471 9.23441 14.7171 4.76559 11.9872 2.04239ZM8.97728 9.93267L7.01733 7.97756L5.05738 9.93267L4.0774 8.95511L6.03735 7L4.0774 5.04489L5.05738 4.06733L7.01733 6.02244L8.97728 4.06733L9.95726 5.04489L7.99731 7L9.95726 8.95511L8.97728 9.93267Z" />
  </symbol>

  <symbol id="double-arrow" viewBox="0 0 16 17" fill="currentColor">
    <path d="M11.7267 12.5L12.6667 11.56L9.61335 8.5L12.6667 5.44L11.7267 4.5L7.72669 8.5L11.7267 12.5Z" />
    <path d="M7.33332 12.5L8.27332 11.56L5.21998 8.5L8.27331 5.44L7.33331 4.5L3.33332 8.5L7.33332 12.5Z" />
  </symbol>

</svg>