<svg xmlns="http://www.w3.org/2000/svg">

  <symbol id="add" viewBox="0 0 24 24">
    <path fill="currentColor"
      d="M22 5.18 10.59 16.6l-4.24-4.24 1.41-1.41 2.83 2.83 10-10zM12 20c-4.41 0-8-3.59-8-8s3.59-8 8-8c1.57 0 3.04.46 4.28 1.25l1.45-1.45C16.1 2.67 14.13 2 12 2 6.48 2 2 6.48 2 12s4.48 10 10 10c1.73 0 3.36-.44 4.78-1.22l-1.5-1.5c-1 .46-2.11.72-3.28.72m7-5h-3v2h3v3h2v-3h3v-2h-3v-3h-2z">
    </path>
  </symbol>

  <symbol id="remove" viewBox="0 0 24 24">
    <path fill="currentColor"
      d="M14.59 8 12 10.59 9.41 8 8 9.41 10.59 12 8 14.59 9.41 16 12 13.41 14.59 16 16 14.59 13.41 12 16 9.41zM12 2C6.47 2 2 6.47 2 12s4.47 10 10 10 10-4.47 10-10S17.53 2 12 2m0 18c-4.41 0-8-3.59-8-8s3.59-8 8-8 8 3.59 8 8-3.59 8-8 8">
    </path>
  </symbol>

</svg>